ffmpeg version 4.0.4-0ubuntu1 Copyright (c) 2000-2019 the FFmpeg developers
  built with gcc 8 (Ubuntu 8.2.0-7ubuntu1)
  configuration: --prefix=/usr --extra-version=0ubuntu1 --toolchain=hardened --libdir=/usr/lib/x86_64-linux-gnu --incdir=/usr/include/x86_64-linux-gnu --arch=amd64 --enable-gpl --disable-stripping --enable-avresample --disable-filter=resample --enable-avisynth --enable-gnutls --enable-ladspa --enable-libaom --enable-libass --enable-libbluray --enable-libbs2b --enable-libcaca --enable-libcdio --enable-libcodec2 --enable-libflite --enable-libfontconfig --enable-libfreetype --enable-libfribidi --enable-libgme --enable-libgsm --enable-libjack --enable-libmp3lame --enable-libmysofa --enable-libopenjpeg --enable-libopenmpt --enable-libopus --enable-libpulse --enable-librsvg --enable-librubberband --enable-libshine --enable-libsnappy --enable-libsoxr --enable-libspeex --enable-libssh --enable-libtheora --enable-libtwolame --enable-libvorbis --enable-libvpx --enable-libwavpack --enable-libwebp --enable-libx265 --enable-libxml2 --enable-libxvid --enable-libzmq --enable-libzvbi --enable-lv2 --enable-omx --enable-openal --enable-opengl --enable-sdl2 --enable-libdc1394 --enable-libdrm --enable-libiec61883 --enable-chromaprint --enable-frei0r --enable-libopencv --enable-libx264 --enable-shared
  libavutil      56. 14.100 / 56. 14.100
  libavcodec     58. 18.100 / 58. 18.100
  libavformat    58. 12.100 / 58. 12.100
  libavdevice    58.  3.100 / 58.  3.100
  libavfilter     7. 16.100 /  7. 16.100
  libavresample   4.  0.  0 /  4.  0.  0
  libswscale      5.  1.100 /  5.  1.100
  libswresample   3.  1.100 /  3.  1.100
  libpostproc    55.  1.100 / 55.  1.100
[rtsp @ 0x561fe13c8a00] Missing PPS in sprop-parameter-sets, ignoring
Input #0, rtsp, from 'rtsp://admin:xiriox3000@10.1.1.72:554':
  Metadata:
    title           : Media Presentation
  Duration: N/A, start: 0.373333, bitrate: N/A
    Stream #0:0: Video: h264 (Main), yuvj420p(pc, bt709, progressive), 1280x720, 15 fps, 25 tbr, 90k tbn, 30 tbc
Output #0, mp4, to '/home/xirioxinf/Ext1/2020-01-03/CAM2//CAM2_admin123_admin_2020-01-03_13-36-13.mp4':
  Metadata:
    title           : Media Presentation
    encoder         : Lavf58.12.100
    Stream #0:0: Video: h264 (Main) (avc1 / 0x31637661), yuvj420p(pc, bt709, progressive), 1280x720, q=2-31, 15 fps, 25 tbr, 90k tbn, 90k tbc
Stream mapping:
  Stream #0:0 -> #0:0 (copy)
Press [q] to stop, [?] for help
[mp4 @ 0x561fe13e77c0] Non-monotonous DTS in output stream 0:0; previous: 0, current: -26400; changing to 1. This may result in incorrect timestamps in the output file.
[mp4 @ 0x561fe13e77c0] Non-monotonous DTS in output stream 0:0; previous: 1, current: -19200; changing to 2. This may result in incorrect timestamps in the output file.
[mp4 @ 0x561fe13e77c0] Non-monotonous DTS in output stream 0:0; previous: 2, current: -15600; changing to 3. This may result in incorrect timestamps in the output file.
[mp4 @ 0x561fe13e77c0] Non-monotonous DTS in output stream 0:0; previous: 3, current: -8400; changing to 4. This may result in incorrect timestamps in the output file.
[mp4 @ 0x561fe13e77c0] Non-monotonous DTS in output stream 0:0; previous: 4, current: -4800; changing to 5. This may result in incorrect timestamps in the output file.
[mp4 @ 0x561fe13e77c0] Non-monotonous DTS in output stream 0:0; previous: 5, current: -1200; changing to 6. This may result in incorrect timestamps in the output file.
frame=   38 fps=0.0 q=-1.0 size=    1280kB time=00:00:02.06 bitrate=5073.9kbits/s speed= 3.6x    frame=   46 fps= 42 q=-1.0 size=    1536kB time=00:00:02.58 bitrate=4864.7kbits/s speed=2.37x    frame=   54 fps= 33 q=-1.0 size=    1792kB time=00:00:03.14 bitrate=4665.4kbits/s speed= 1.9x    frame=   62 fps= 29 q=-1.0 size=    2048kB time=00:00:03.66 bitrate=4575.7kbits/s speed=1.69x    frame=   70 fps= 26 q=-1.0 size=    2304kB time=00:00:04.18 bitrate=4508.3kbits/s speed=1.55x    frame=   78 fps= 24 q=-1.0 size=    2560kB time=00:00:04.74 bitrate=4418.2kbits/s speed=1.46x    frame=   86 fps= 23 q=-1.0 size=    2816kB time=00:00:05.26 bitrate=4380.2kbits/s speed= 1.4x    frame=   94 fps= 22 q=-1.0 size=    3072kB time=00:00:05.78 bitrate=4349.7kbits/s speed=1.35x    frame=  102 fps= 21 q=-1.0 size=    3328kB time=00:00:06.34 bitrate=4296.4kbits/s speed=1.31x    frame=  110 fps= 20 q=-1.0 size=    3584kB time=00:00:06.86 bitrate=4276.4kbits/s speed=1.28x    frame=  118 fps= 20 q=-1.0 size=    3840kB time=00:00:07.38 bitrate=4259.3kbits/s speed=1.25x    frame=  126 fps= 20 q=-1.0 size=    4096kB time=00:00:07.94 bitrate=4223.0kbits/s speed=1.23x    frame=  134 fps= 19 q=-1.0 size=    4352kB time=00:00:08.46 bitrate=4211.4kbits/s speed=1.21x    frame=  142 fps= 19 q=-1.0 size=    4864kB time=00:00:08.98 bitrate=4434.4kbits/s speed= 1.2x    frame=  150 fps= 19 q=-1.0 size=    5120kB time=00:00:09.54 bitrate=4394.0kbits/s speed=1.19x    frame=  158 fps= 18 q=-1.0 size=    5376kB time=00:00:10.06 bitrate=4375.3kbits/s speed=1.17x    frame=  166 fps= 18 q=-1.0 size=    5632kB time=00:00:10.58 bitrate=4358.5kbits/s speed=1.16x    frame=  174 fps= 18 q=-1.0 size=    5888kB time=00:00:11.14 bitrate=4327.7kbits/s speed=1.16x    frame=  182 fps= 18 q=-1.0 size=    6144kB time=00:00:11.66 bitrate=4314.5kbits/s speed=1.15x    frame=  190 fps= 18 q=-1.0 size=    6400kB time=00:00:12.18 bitrate=4302.5kbits/s speed=1.14x    frame=  198 fps= 18 q=-1.0 size=    6656kB time=00:00:12.74 bitrate=4278.0kbits/s speed=1.13x    frame=  206 fps= 18 q=-1.0 size=    6912kB time=00:00:13.26 bitrate=4268.4kbits/s speed=1.13x    frame=  214 fps= 17 q=-1.0 size=    7168kB time=00:00:13.78 bitrate=4259.5kbits/s speed=1.12x    frame=  222 fps= 17 q=-1.0 size=    7424kB time=00:00:14.34 bitrate=4239.5kbits/s speed=1.12x    frame=  230 fps= 17 q=-1.0 size=    7680kB time=00:00:14.86 bitrate=4232.2kbits/s speed=1.11x    frame=  238 fps= 17 q=-1.0 size=    7936kB time=00:00:15.38 bitrate=4225.5kbits/s speed=1.11x    frame=  246 fps= 17 q=-1.0 size=    8192kB time=00:00:15.94 bitrate=4208.9kbits/s speed= 1.1x    frame=  254 fps= 17 q=-1.0 size=    8448kB time=00:00:16.46 bitrate=4203.3kbits/s speed= 1.1x    frame=  262 fps= 17 q=-1.0 size=    8704kB time=00:00:16.98 bitrate=4198.1kbits/s speed= 1.1x    frame=  270 fps= 17 q=-1.0 size=    9216kB time=00:00:17.54 bitrate=4303.2kbits/s speed=1.09x    frame=  278 fps= 17 q=-1.0 size=    9472kB time=00:00:18.06 bitrate=4295.4kbits/s speed=1.09x    frame=  286 fps= 17 q=-1.0 size=    9728kB time=00:00:18.58 bitrate=4288.1kbits/s speed=1.09x    frame=  294 fps= 17 q=-1.0 size=    9984kB time=00:00:19.14 bitrate=4272.2kbits/s speed=1.09x    frame=  302 fps= 17 q=-1.0 size=   10240kB time=00:00:19.66 bitrate=4265.8kbits/s speed=1.08x    frame=  310 fps= 17 q=-1.0 size=   10496kB time=00:00:20.18 bitrate=4259.8kbits/s speed=1.08x    frame=  318 fps= 17 q=-1.0 size=   10752kB time=00:00:20.74 bitrate=4245.9kbits/s speed=1.08x    frame=  326 fps= 16 q=-1.0 size=   11008kB time=00:00:21.26 bitrate=4240.7kbits/s speed=1.08x    frame=  334 fps= 16 q=-1.0 size=   11264kB time=00:00:21.78 bitrate=4235.8kbits/s speed=1.07x    frame=  342 fps= 16 q=-1.0 size=   11520kB time=00:00:22.34 bitrate=4223.5kbits/s speed=1.07x    frame=  350 fps= 16 q=-1.0 size=   11776kB time=00:00:22.86 bitrate=4219.1kbits/s speed=1.07x    frame=  358 fps= 16 q=-1.0 size=   12032kB time=00:00:23.38 bitrate=4215.0kbits/s speed=1.07x    frame=  366 fps= 16 q=-1.0 size=   12288kB time=00:00:23.94 bitrate=4204.0kbits/s speed=1.07x    frame=  374 fps= 16 q=-1.0 size=   12544kB time=00:00:24.46 bitrate=4200.4kbits/s speed=1.07x    frame=  382 fps= 16 q=-1.0 size=   12800kB time=00:00:24.98 bitrate=4196.9kbits/s speed=1.06x    frame=  390 fps= 16 q=-1.0 size=   13056kB time=00:00:25.54 bitrate=4187.1kbits/s speed=1.06x    frame=  398 fps= 16 q=-1.0 size=   13312kB time=00:00:26.06 bitrate=4184.1kbits/s speed=1.06x    frame=  406 fps= 16 q=-1.0 size=   13568kB time=00:00:26.58 bitrate=4181.1kbits/s speed=1.06x    frame=  414 fps= 16 q=-1.0 size=   14080kB time=00:00:27.14 bitrate=4249.4kbits/s speed=1.06x    frame=  422 fps= 16 q=-1.0 size=   14336kB time=00:00:27.66 bitrate=4245.3kbits/s speed=1.06x    frame=  430 fps= 16 q=-1.0 size=   14592kB time=00:00:28.18 bitrate=4241.4kbits/s speed=1.06x    frame=  438 fps= 16 q=-1.0 size=   14848kB time=00:00:28.74 bitrate=4231.7kbits/s speed=1.06x    frame=  446 fps= 16 q=-1.0 size=   15104kB time=00:00:29.26 bitrate=4228.2kbits/s speed=1.05x    frame=  454 fps= 16 q=-1.0 size=   15360kB time=00:00:29.78 bitrate=4224.8kbits/s speed=1.05x    frame=  462 fps= 16 q=-1.0 size=   15616kB time=00:00:30.34 bitrate=4215.9kbits/s speed=1.05x    frame=  470 fps= 16 q=-1.0 size=   15872kB time=00:00:30.86 bitrate=4212.8kbits/s speed=1.05x    frame=  478 fps= 16 q=-1.0 size=   16128kB time=00:00:31.38 bitrate=4209.9kbits/s speed=1.05x    frame=  486 fps= 16 q=-1.0 size=   16384kB time=00:00:31.94 bitrate=4201.7kbits/s speed=1.05x    frame=  494 fps= 16 q=-1.0 size=   16640kB time=00:00:32.46 bitrate=4199.0kbits/s speed=1.05x    frame=  502 fps= 16 q=-1.0 size=   16896kB time=00:00:32.98 bitrate=4196.4kbits/s speed=1.05x    frame=  510 fps= 16 q=-1.0 size=   17152kB time=00:00:33.54 bitrate=4188.9kbits/s speed=1.05x    frame=  518 fps= 16 q=-1.0 size=   17408kB time=00:00:34.06 bitrate=4186.5kbits/s speed=1.05x    frame=  526 fps= 16 q=-1.0 size=   17664kB time=00:00:34.58 bitrate=4184.2kbits/s speed=1.05x    frame=  534 fps= 16 q=-1.0 size=   17920kB time=00:00:35.14 bitrate=4177.2kbits/s speed=1.05x    frame=  542 fps= 16 q=-1.0 size=   18176kB time=00:00:35.66 bitrate=4175.2kbits/s speed=1.04x    frame=  550 fps= 16 q=-1.0 size=   18432kB time=00:00:36.18 bitrate=4173.1kbits/s speed=1.04x    frame=  557 fps= 16 q=-1.0 size=   18688kB time=00:00:36.66 bitrate=4175.7kbits/s speed=1.04x    frame=  566 fps= 16 q=-1.0 size=   19200kB time=00:00:37.26 bitrate=4221.0kbits/s speed=1.04x    frame=  574 fps= 16 q=-1.0 size=   19456kB time=00:00:37.78 bitrate=4218.4kbits/s speed=1.04x    frame=  582 fps= 16 q=-1.0 size=   19712kB time=00:00:38.34 bitrate=4211.5kbits/s speed=1.04x    frame=  590 fps= 16 q=-1.0 size=   19968kB time=00:00:38.86 bitrate=4209.1kbits/s speed=1.04x    frame=  598 fps= 16 q=-1.0 size=   20224kB time=00:00:39.38 bitrate=4206.8kbits/s speed=1.04x    frame=  606 fps= 16 q=-1.0 size=   20480kB time=00:00:39.94 bitrate=4200.3kbits/s speed=1.04x    frame=  614 fps= 16 q=-1.0 size=   20736kB time=00:00:40.46 bitrate=4198.2kbits/s speed=1.04x    frame=  622 fps= 16 q=-1.0 size=   21248kB time=00:00:40.98 bitrate=4247.3kbits/s speed=1.04x    frame=  630 fps= 16 q=-1.0 size=   21504kB time=00:00:41.54 bitrate=4240.5kbits/s speed=1.04x    frame=  638 fps= 16 q=-1.0 size=   21760kB time=00:00:42.06 bitrate=4237.9kbits/s speed=1.04x    frame=  646 fps= 16 q=-1.0 size=   22016kB time=00:00:42.58 bitrate=4235.4kbits/s speed=1.04x    frame=  654 fps= 16 q=-1.0 size=   22272kB time=00:00:43.14 bitrate=4229.1kbits/s speed=1.04x    frame=  662 fps= 16 q=-1.0 size=   22528kB time=00:00:43.66 bitrate=4226.7kbits/s speed=1.04x    frame=  670 fps= 16 q=-1.0 size=   22784kB time=00:00:44.18 bitrate=4224.4kbits/s speed=1.04x    frame=  678 fps= 16 q=-1.0 size=   23040kB time=00:00:44.74 bitrate=4218.4kbits/s speed=1.04x    frame=  686 fps= 16 q=-1.0 size=   23296kB time=00:00:45.26 bitrate=4216.3kbits/s speed=1.03x    frame=  694 fps= 16 q=-1.0 size=   23552kB time=00:00:45.78 bitrate=4214.3kbits/s speed=1.03x    frame=  702 fps= 16 q=-1.0 size=   23808kB time=00:00:46.34 bitrate=4208.6kbits/s speed=1.03x    frame=  710 fps= 16 q=-1.0 size=   24064kB time=00:00:46.86 bitrate=4206.7kbits/s speed=1.03x    frame=  718 fps= 16 q=-1.0 size=   24320kB time=00:00:47.38 bitrate=4204.8kbits/s speed=1.03x    frame=  726 fps= 16 q=-1.0 size=   24576kB time=00:00:47.94 bitrate=4199.4kbits/s speed=1.03x    frame=  734 fps= 16 q=-1.0 size=   24832kB time=00:00:48.46 bitrate=4197.6kbits/s speed=1.03x    frame=  742 fps= 16 q=-1.0 size=   25088kB time=00:00:48.98 bitrate=4195.9kbits/s speed=1.03x    frame=  750 fps= 16 q=-1.0 size=   25344kB time=00:00:49.54 bitrate=4190.8kbits/s speed=1.03x    frame=  758 fps= 16 q=-1.0 size=   25856kB time=00:00:50.06 bitrate=4231.0kbits/s speed=1.03x    frame=  766 fps= 16 q=-1.0 size=   26112kB time=00:00:50.58 bitrate=4229.0kbits/s speed=1.03x    frame=  774 fps= 16 q=-1.0 size=   26368kB time=00:00:51.14 bitrate=4223.7kbits/s speed=1.03x    frame=  782 fps= 16 q=-1.0 size=   26624kB time=00:00:51.66 bitrate=4221.8kbits/s speed=1.03x    frame=  790 fps= 16 q=-1.0 size=   26880kB time=00:00:52.18 bitrate=4219.9kbits/s speed=1.03x    frame=  798 fps= 16 q=-1.0 size=   27136kB time=00:00:52.74 bitrate=4214.9kbits/s speed=1.03x    frame=  806 fps= 16 q=-1.0 size=   27392kB time=00:00:53.26 bitrate=4213.1kbits/s speed=1.03x    frame=  814 fps= 16 q=-1.0 size=   27648kB time=00:00:53.78 bitrate=4211.3kbits/s speed=1.03x    frame=  822 fps= 16 q=-1.0 size=   27904kB time=00:00:54.34 bitrate=4206.5kbits/s speed=1.03x    frame=  830 fps= 16 q=-1.0 size=   28160kB time=00:00:54.86 bitrate=4204.9kbits/s speed=1.03x    frame=  838 fps= 16 q=-1.0 size=   28416kB time=00:00:55.38 bitrate=4203.3kbits/s speed=1.03x    frame=  846 fps= 16 q=-1.0 size=   28672kB time=00:00:55.94 bitrate=4198.8kbits/s speed=1.03x    frame=  854 fps= 16 q=-1.0 size=   28928kB time=00:00:56.46 bitrate=4197.2kbits/s speed=1.03x    frame=  862 fps= 16 q=-1.0 size=   29184kB time=00:00:56.98 bitrate=4195.7kbits/s speed=1.03x    frame=  870 fps= 16 q=-1.0 size=   29440kB time=00:00:57.54 bitrate=4191.3kbits/s speed=1.03x    frame=  878 fps= 16 q=-1.0 size=   29696kB time=00:00:58.06 bitrate=4189.9kbits/s speed=1.03x    frame=  886 fps= 16 q=-1.0 size=   29952kB time=00:00:58.58 bitrate=4188.5kbits/s speed=1.03x    frame=  894 fps= 16 q=-1.0 size=   30208kB time=00:00:59.14 bitrate=4184.3kbits/s speed=1.03x    frame=  902 fps= 16 q=-1.0 size=   30720kB time=00:00:59.66 bitrate=4218.2kbits/s speed=1.03x    frame=  910 fps= 16 q=-1.0 size=   30976kB time=00:01:00.18 bitrate=4216.6kbits/s speed=1.03x    frame=  918 fps= 16 q=-1.0 size=   31232kB time=00:01:00.74 bitrate=4212.2kbits/s speed=1.03x    frame=  926 fps= 16 q=-1.0 size=   31488kB time=00:01:01.26 bitrate=4210.7kbits/s speed=1.03x    frame=  934 fps= 16 q=-1.0 size=   31744kB time=00:01:01.78 bitrate=4209.2kbits/s speed=1.03x    frame=  942 fps= 15 q=-1.0 size=   32000kB time=00:01:02.34 bitrate=4205.0kbits/s speed=1.03x    frame=  950 fps= 15 q=-1.0 size=   32256kB time=00:01:02.86 bitrate=4203.6kbits/s speed=1.03x    frame=  957 fps= 15 q=-1.0 size=   32512kB time=00:01:03.34 bitrate=4204.9kbits/s speed=1.02x    frame=  966 fps= 15 q=-1.0 size=   32768kB time=00:01:03.94 bitrate=4198.2kbits/s speed=1.02x    frame=  974 fps= 15 q=-1.0 size=   33024kB time=00:01:04.46 bitrate=4196.9kbits/s speed=1.02x    frame=  982 fps= 15 q=-1.0 size=   33280kB time=00:01:04.98 bitrate=4195.6kbits/s speed=1.02x    frame=  990 fps= 15 q=-1.0 size=   33536kB time=00:01:05.53 bitrate=4191.8kbits/s speed=1.02x    frame=  998 fps= 15 q=-1.0 size=   33792kB time=00:01:06.05 bitrate=4190.5kbits/s speed=1.02x    frame= 1006 fps= 15 q=-1.0 size=   34048kB time=00:01:06.57 bitrate=4189.3kbits/s speed=1.02x    frame= 1014 fps= 15 q=-1.0 size=   34560kB time=00:01:07.13 bitrate=4216.8kbits/s speed=1.02x    frame= 1022 fps= 15 q=-1.0 size=   34816kB time=00:01:07.65 bitrate=4215.4kbits/s speed=1.02x    frame= 1030 fps= 15 q=-1.0 size=   35072kB time=00:01:08.17 bitrate=4214.0kbits/s speed=1.02x    frame= 1038 fps= 15 q=-1.0 size=   35328kB time=00:01:08.73 bitrate=4210.2kbits/s speed=1.02x    frame= 1046 fps= 15 q=-1.0 size=   35584kB time=00:01:09.25 bitrate=4208.9kbits/s speed=1.02x    frame= 1054 fps= 15 q=-1.0 size=   35840kB time=00:01:09.77 bitrate=4207.6kbits/s speed=1.02x    frame= 1062 fps= 15 q=-1.0 size=   36096kB time=00:01:10.33 bitrate=4203.9kbits/s speed=1.02x    frame= 1070 fps= 15 q=-1.0 size=   36352kB time=00:01:10.85 bitrate=4202.6kbits/s speed=1.02x    frame= 1078 fps= 15 q=-1.0 size=   36608kB time=00:01:11.37 bitrate=4201.4kbits/s speed=1.02x    frame= 1086 fps= 15 q=-1.0 size=   36864kB time=00:01:11.93 bitrate=4197.8kbits/s speed=1.02x    frame= 1094 fps= 15 q=-1.0 size=   37120kB time=00:01:12.45 bitrate=4196.6kbits/s speed=1.02x    frame= 1102 fps= 15 q=-1.0 size=   37376kB time=00:01:12.97 bitrate=4195.5kbits/s speed=1.02x    frame= 1110 fps= 15 q=-1.0 size=   37632kB time=00:01:13.53 bitrate=4192.0kbits/s speed=1.02x    frame= 1118 fps= 15 q=-1.0 size=   38144kB time=00:01:14.05 bitrate=4219.2kbits/s speed=1.02x    frame= 1126 fps= 15 q=-1.0 size=   38400kB time=00:01:14.57 bitrate=4217.9kbits/s speed=1.02x    frame= 1134 fps= 15 q=-1.0 size=   38656kB time=00:01:15.13 bitrate=4214.4kbits/s speed=1.02x    frame= 1142 fps= 15 q=-1.0 size=   38912kB time=00:01:15.65 bitrate=4213.2kbits/s speed=1.02x    frame= 1150 fps= 15 q=-1.0 size=   39168kB time=00:01:16.17 bitrate=4212.0kbits/s speed=1.02x    frame= 1157 fps= 15 q=-1.0 size=   39424kB time=00:01:16.65 bitrate=4213.0kbits/s speed=1.02x    frame= 1166 fps= 15 q=-1.0 size=   39680kB time=00:01:17.25 bitrate=4207.4kbits/s speed=1.02x    frame= 1174 fps= 15 q=-1.0 size=   39936kB time=00:01:17.77 bitrate=4206.2kbits/s speed=1.02x    frame= 1182 fps= 15 q=-1.0 size=   40192kB time=00:01:18.33 bitrate=4202.9kbits/s speed=1.02x    frame= 1190 fps= 15 q=-1.0 size=   40448kB time=00:01:18.85 bitrate=4201.8kbits/s speed=1.02x    frame= 1198 fps= 15 q=-1.0 size=   40704kB time=00:01:19.37 bitrate=4200.7kbits/s speed=1.02x    frame= 1206 fps= 15 q=-1.0 size=   40960kB time=00:01:19.93 bitrate=4197.5kbits/s speed=1.02x    frame= 1214 fps= 15 q=-1.0 size=   41216kB time=00:01:20.45 bitrate=4196.5kbits/s speed=1.02x    frame= 1222 fps= 15 q=-1.0 size=   41472kB time=00:01:20.97 bitrate=4195.4kbits/s speed=1.02x    frame= 1230 fps= 15 q=-1.0 size=   41984kB time=00:01:21.53 bitrate=4218.0kbits/s speed=1.02x    frame= 1238 fps= 15 q=-1.0 size=   42240kB time=00:01:22.05 bitrate=4216.9kbits/s speed=1.02x    frame= 1246 fps= 15 q=-1.0 size=   42496kB time=00:01:22.57 bitrate=4215.7kbits/s speed=1.02x    frame= 1254 fps= 15 q=-1.0 size=   42752kB time=00:01:23.13 bitrate=4212.5kbits/s speed=1.02x    frame= 1262 fps= 15 q=-1.0 size=   43008kB time=00:01:23.65 bitrate=4211.4kbits/s speed=1.02x    frame= 1270 fps= 15 q=-1.0 size=   43264kB time=00:01:24.17 bitrate=4210.3kbits/s speed=1.02x    frame= 1278 fps= 15 q=-1.0 size=   43520kB time=00:01:24.73 bitrate=4207.2kbits/s speed=1.02x    frame= 1286 fps= 15 q=-1.0 size=   43776kB time=00:01:25.25 bitrate=4206.2kbits/s speed=1.02x    frame= 1294 fps= 15 q=-1.0 size=   44032kB time=00:01:25.77 bitrate=4205.2kbits/s speed=1.02x    frame= 1302 fps= 15 q=-1.0 size=   44288kB time=00:01:26.33 bitrate=4202.2kbits/s speed=1.02x    frame= 1310 fps= 15 q=-1.0 size=   44544kB time=00:01:26.85 bitrate=4201.2kbits/s speed=1.02x    frame= 1318 fps= 15 q=-1.0 size=   44800kB time=00:01:27.37 bitrate=4200.2kbits/s speed=1.02x    frame= 1326 fps= 15 q=-1.0 size=   45056kB time=00:01:27.93 bitrate=4197.3kbits/s speed=1.02x    frame= 1334 fps= 15 q=-1.0 size=   45312kB time=00:01:28.45 bitrate=4196.3kbits/s speed=1.02x    frame= 1342 fps= 15 q=-1.0 size=   45824kB time=00:01:28.97 bitrate=4218.9kbits/s speed=1.02x    frame= 1350 fps= 15 q=-1.0 size=   46080kB time=00:01:29.53 bitrate=4216.0kbits/s speed=1.02x    frame= 1358 fps= 15 q=-1.0 size=   46336kB time=00:01:30.05 bitrate=4214.9kbits/s speed=1.02x    frame= 1366 fps= 15 q=-1.0 size=   46592kB time=00:01:30.57 bitrate=4213.9kbits/s speed=1.02x    frame= 1374 fps= 15 q=-1.0 size=   46848kB time=00:01:31.13 bitrate=4211.0kbits/s speed=1.02x    frame= 1382 fps= 15 q=-1.0 size=   47104kB time=00:01:31.65 bitrate=4210.0kbits/s speed=1.02x    frame= 1390 fps= 15 q=-1.0 size=   47360kB time=00:01:32.17 bitrate=4209.0kbits/s speed=1.02x    frame= 1398 fps= 15 q=-1.0 size=   47616kB time=00:01:32.73 bitrate=4206.2kbits/s speed=1.02x    frame= 1406 fps= 15 q=-1.0 size=   47872kB time=00:01:33.25 bitrate=4205.2kbits/s speed=1.02x    frame= 1414 fps= 15 q=-1.0 size=   48128kB time=00:01:33.77 bitrate=4204.3kbits/s speed=1.02x    frame= 1422 fps= 15 q=-1.0 size=   48640kB time=00:01:34.33 bitrate=4223.8kbits/s speed=1.02x    frame= 1430 fps= 15 q=-1.0 size=   48896kB time=00:01:34.85 bitrate=4222.7kbits/s speed=1.02x    frame= 1438 fps= 15 q=-1.0 size=   49152kB time=00:01:35.37 bitrate=4221.7kbits/s speed=1.02x    frame= 1446 fps= 15 q=-1.0 size=   49408kB time=00:01:35.93 bitrate=4218.9kbits/s speed=1.02x    frame= 1454 fps= 15 q=-1.0 size=   49664kB time=00:01:36.45 bitrate=4217.9kbits/s speed=1.02x    frame= 1462 fps= 15 q=-1.0 size=   49920kB time=00:01:36.97 bitrate=4216.9kbits/s speed=1.02x    frame= 1470 fps= 15 q=-1.0 size=   50176kB time=00:01:37.53 bitrate=4214.2kbits/s speed=1.02x    frame= 1478 fps= 15 q=-1.0 size=   50432kB time=00:01:38.05 bitrate=4213.3kbits/s speed=1.02x    frame= 1486 fps= 15 q=-1.0 size=   50688kB time=00:01:38.57 bitrate=4212.3kbits/s speed=1.02x    frame= 1494 fps= 15 q=-1.0 size=   50944kB time=00:01:39.13 bitrate=4209.7kbits/s speed=1.02x    frame= 1502 fps= 15 q=-1.0 size=   51200kB time=00:01:39.65 bitrate=4208.8kbits/s speed=1.02x    frame= 1510 fps= 15 q=-1.0 size=   51712kB time=00:01:40.17 bitrate=4228.8kbits/s speed=1.02x    frame= 1518 fps= 15 q=-1.0 size=   51968kB time=00:01:40.73 bitrate=4226.1kbits/s speed=1.02x    frame= 1526 fps= 15 q=-1.0 size=   52224kB time=00:01:41.25 bitrate=4225.1kbits/s speed=1.02x    frame= 1534 fps= 15 q=-1.0 size=   52480kB time=00:01:41.77 bitrate=4224.1kbits/s speed=1.02x    frame= 1542 fps= 15 q=-1.0 size=   52736kB time=00:01:42.33 bitrate=4221.5kbits/s speed=1.02x    frame= 1550 fps= 15 q=-1.0 size=   52992kB time=00:01:42.85 bitrate=4220.5kbits/s speed=1.02x    frame= 1557 fps= 15 q=-1.0 size=   53248kB time=00:01:43.33 bitrate=4221.2kbits/s speed=1.02x    frame= 1566 fps= 15 q=-1.0 size=   53504kB time=00:01:43.93 bitrate=4217.0kbits/s speed=1.02x    frame= 1574 fps= 15 q=-1.0 size=   53760kB time=00:01:44.45 bitrate=4216.1kbits/s speed=1.02x    frame= 1582 fps= 15 q=-1.0 size=   54272kB time=00:01:44.97 bitrate=4235.2kbits/s speed=1.02x    frame= 1590 fps= 15 q=-1.0 size=   54528kB time=00:01:45.53 bitrate=4232.6kbits/s speed=1.02x    frame= 1598 fps= 15 q=-1.0 size=   54784kB time=00:01:46.05 bitrate=4231.7kbits/s speed=1.02x    frame= 1606 fps= 15 q=-1.0 size=   55040kB time=00:01:46.57 bitrate=4230.7kbits/s speed=1.02x    frame= 1614 fps= 15 q=-1.0 size=   55296kB time=00:01:47.13 bitrate=4228.1kbits/s speed=1.01x    frame= 1622 fps= 15 q=-1.0 size=   55552kB time=00:01:47.65 bitrate=4227.2kbits/s speed=1.01x    frame= 1630 fps= 15 q=-1.0 size=   55808kB time=00:01:48.17 bitrate=4226.3kbits/s speed=1.01x    frame= 1638 fps= 15 q=-1.0 size=   56064kB time=00:01:48.73 bitrate=4223.8kbits/s speed=1.01x    frame= 1646 fps= 15 q=-1.0 size=   56320kB time=00:01:49.25 bitrate=4222.9kbits/s speed=1.01x    frame= 1654 fps= 15 q=-1.0 size=   56576kB time=00:01:49.77 bitrate=4222.0kbits/s speed=1.01x    frame= 1662 fps= 15 q=-1.0 size=   56832kB time=00:01:50.33 bitrate=4219.6kbits/s speed=1.01x    frame= 1670 fps= 15 q=-1.0 size=   57088kB time=00:01:50.85 bitrate=4218.7kbits/s speed=1.01x    frame= 1678 fps= 15 q=-1.0 size=   57344kB time=00:01:51.37 bitrate=4217.8kbits/s speed=1.01x    frame= 1686 fps= 15 q=-1.0 size=   57856kB time=00:01:51.93 bitrate=4234.2kbits/s speed=1.01x    frame= 1694 fps= 15 q=-1.0 size=   58112kB time=00:01:52.45 bitrate=4233.3kbits/s speed=1.01x    frame= 1702 fps= 15 q=-1.0 size=   58368kB time=00:01:52.97 bitrate=4232.3kbits/s speed=1.01x    frame= 1710 fps= 15 q=-1.0 size=   58624kB time=00:01:53.53 bitrate=4229.9kbits/s speed=1.01x    frame= 1718 fps= 15 q=-1.0 size=   58880kB time=00:01:54.05 bitrate=4229.0kbits/s speed=1.01x    frame= 1726 fps= 15 q=-1.0 size=   59136kB time=00:01:54.57 bitrate=4228.1kbits/s speed=1.01x    frame= 1734 fps= 15 q=-1.0 size=   59392kB time=00:01:55.13 bitrate=4225.8kbits/s speed=1.01x    frame= 1742 fps= 15 q=-1.0 size=   59648kB time=00:01:55.65 bitrate=4225.0kbits/s speed=1.01x    frame= 1750 fps= 15 q=-1.0 size=   59904kB time=00:01:56.17 bitrate=4224.1kbits/s speed=1.01x    frame= 1757 fps= 15 q=-1.0 size=   60160kB time=00:01:56.65 bitrate=4224.7kbits/s speed=1.01x    frame= 1766 fps= 15 q=-1.0 size=   60416kB time=00:01:57.25 bitrate=4221.0kbits/s speed=1.01x    frame= 1774 fps= 15 q=-1.0 size=   60672kB time=00:01:57.77 bitrate=4220.1kbits/s speed=1.01x    frame= 1782 fps= 15 q=-1.0 size=   60928kB time=00:01:58.33 bitrate=4217.9kbits/s speed=1.01x    frame= 1790 fps= 15 q=-1.0 size=   61184kB time=00:01:58.85 bitrate=4217.1kbits/s speed=1.01x    frame= 1798 fps= 15 q=-1.0 size=   61440kB time=00:01:59.37 bitrate=4216.3kbits/s speed=1.01x    frame= 1806 fps= 15 q=-1.0 size=   61952kB time=00:01:59.93 bitrate=4231.6kbits/s speed=1.01x    frame= 1814 fps= 15 q=-1.0 size=   62208kB time=00:02:00.45 bitrate=4230.7kbits/s speed=1.01x    frame= 1822 fps= 15 q=-1.0 size=   62464kB time=00:02:00.97 bitrate=4229.9kbits/s speed=1.01x    frame= 1830 fps= 15 q=-1.0 size=   62720kB time=00:02:01.53 bitrate=4227.6kbits/s speed=1.01x    frame= 1838 fps= 15 q=-1.0 size=   62976kB time=00:02:02.05 bitrate=4226.8kbits/s speed=1.01x    frame= 1846 fps= 15 q=-1.0 size=   63232kB time=00:02:02.57 bitrate=4226.0kbits/s speed=1.01x    frame= 1854 fps= 15 q=-1.0 size=   63488kB time=00:02:03.13 bitrate=4223.8kbits/s speed=1.01x    frame= 1862 fps= 15 q=-1.0 size=   63744kB time=00:02:03.65 bitrate=4223.0kbits/s speed=1.01x    frame= 1870 fps= 15 q=-1.0 size=   64000kB time=00:02:04.17 bitrate=4222.2kbits/s speed=1.01x    frame= 1878 fps= 15 q=-1.0 size=   64256kB time=00:02:04.73 bitrate=4220.0kbits/s speed=1.01x    frame= 1886 fps= 15 q=-1.0 size=   64512kB time=00:02:05.25 bitrate=4219.3kbits/s speed=1.01x    frame= 1894 fps= 15 q=-1.0 size=   64768kB time=00:02:05.77 bitrate=4218.5kbits/s speed=1.01x    frame= 1902 fps= 15 q=-1.0 size=   65024kB time=00:02:06.33 bitrate=4216.4kbits/s speed=1.01x    frame= 1910 fps= 15 q=-1.0 size=   65536kB time=00:02:06.85 bitrate=4232.2kbits/s speed=1.01x    frame= 1918 fps= 15 q=-1.0 size=   65792kB time=00:02:07.37 bitrate=4231.4kbits/s speed=1.01x    frame= 1926 fps= 15 q=-1.0 size=   66048kB time=00:02:07.93 bitrate=4229.3kbits/s speed=1.01x    frame= 1934 fps= 15 q=-1.0 size=   66304kB time=00:02:08.45 bitrate=4228.5kbits/s speed=1.01x    frame= 1942 fps= 15 q=-1.0 size=   66560kB time=00:02:08.97 bitrate=4227.7kbits/s speed=1.01x    frame= 1950 fps= 15 q=-1.0 size=   66816kB time=00:02:09.53 bitrate=4225.6kbits/s speed=1.01x    frame= 1958 fps= 15 q=-1.0 size=   67072kB time=00:02:10.05 bitrate=4224.8kbits/s speed=1.01x    frame= 1966 fps= 15 q=-1.0 size=   67328kB time=00:02:10.57 bitrate=4224.1kbits/s speed=1.01x    frame= 1974 fps= 15 q=-1.0 size=   67584kB time=00:02:11.13 bitrate=4222.0kbits/s speed=1.01x    frame= 1982 fps= 15 q=-1.0 size=   67840kB time=00:02:11.65 bitrate=4221.3kbits/s speed=1.01x    frame= 1990 fps= 15 q=-1.0 size=   68096kB time=00:02:12.17 bitrate=4220.5kbits/s speed=1.01x    frame= 1998 fps= 15 q=-1.0 size=   68352kB time=00:02:12.73 bitrate=4218.5kbits/s speed=1.01x    frame= 2006 fps= 15 q=-1.0 size=   68608kB time=00:02:13.25 bitrate=4217.8kbits/s speed=1.01x    frame= 2014 fps= 15 q=-1.0 size=   68864kB time=00:02:13.77 bitrate=4217.1kbits/s speed=1.01x    frame= 2022 fps= 15 q=-1.0 size=   69120kB time=00:02:14.33 bitrate=4215.1kbits/s speed=1.01x    frame= 2030 fps= 15 q=-1.0 size=   69632kB time=00:02:14.85 bitrate=4230.0kbits/s speed=1.01x    frame= 2038 fps= 15 q=-1.0 size=   69888kB time=00:02:15.37 bitrate=4229.2kbits/s speed=1.01x    frame= 2046 fps= 15 q=-1.0 size=   70144kB time=00:02:15.93 bitrate=4227.2kbits/s speed=1.01x    frame= 2054 fps= 15 q=-1.0 size=   70400kB time=00:02:16.45 bitrate=4226.5kbits/s speed=1.01x    frame= 2062 fps= 15 q=-1.0 size=   70656kB time=00:02:16.97 bitrate=4225.8kbits/s speed=1.01x    frame= 2070 fps= 15 q=-1.0 size=   70912kB time=00:02:17.53 bitrate=4223.8kbits/s speed=1.01x    frame= 2078 fps= 15 q=-1.0 size=   71168kB time=00:02:18.05 bitrate=4223.1kbits/s speed=1.01x    frame= 2086 fps= 15 q=-1.0 size=   71424kB time=00:02:18.57 bitrate=4222.4kbits/s speed=1.01x    frame= 2094 fps= 15 q=-1.0 size=   71680kB time=00:02:19.13 bitrate=4220.5kbits/s speed=1.01x    frame= 2102 fps= 15 q=-1.0 size=   71936kB time=00:02:19.65 bitrate=4219.8kbits/s speed=1.01x    frame= 2110 fps= 15 q=-1.0 size=   72192kB time=00:02:20.17 bitrate=4219.1kbits/s speed=1.01x    frame= 2118 fps= 15 q=-1.0 size=   72448kB time=00:02:20.73 bitrate=4217.2kbits/s speed=1.01x    frame= 2126 fps= 15 q=-1.0 size=   72704kB time=00:02:21.25 bitrate=4216.5kbits/s speed=1.01x    frame= 2134 fps= 15 q=-1.0 size=   72960kB time=00:02:21.77 bitrate=4215.8kbits/s speed=1.01x    frame= 2142 fps= 15 q=-1.0 size=   73216kB time=00:02:22.33 bitrate=4214.0kbits/s speed=1.01x    frame= 2150 fps= 15 q=-1.0 size=   73728kB time=00:02:22.85 bitrate=4228.0kbits/s speed=1.01x    frame= 2157 fps= 15 q=-1.0 size=   73984kB time=00:02:23.33 bitrate=4228.5kbits/s speed=1.01x    frame= 2166 fps= 15 q=-1.0 size=   74240kB time=00:02:23.93 bitrate=4225.4kbits/s speed=1.01x    frame= 2174 fps= 15 q=-1.0 size=   74496kB time=00:02:24.45 bitrate=4224.7kbits/s speed=1.01x    frame= 2182 fps= 15 q=-1.0 size=   74752kB time=00:02:24.97 bitrate=4224.0kbits/s speed=1.01x    frame= 2190 fps= 15 q=-1.0 size=   75008kB time=00:02:25.53 bitrate=4222.2kbits/s speed=1.01x    frame= 2198 fps= 15 q=-1.0 size=   75264kB time=00:02:26.05 bitrate=4221.5kbits/s speed=1.01x    frame= 2206 fps= 15 q=-1.0 size=   75520kB time=00:02:26.57 bitrate=4220.9kbits/s speed=1.01x    frame= 2214 fps= 15 q=-1.0 size=   75776kB time=00:02:27.13 bitrate=4219.1kbits/s speed=1.01x    frame= 2222 fps= 15 q=-1.0 size=   76032kB time=00:02:27.65 bitrate=4218.4kbits/s speed=1.01x    frame= 2230 fps= 15 q=-1.0 size=   76288kB time=00:02:28.17 bitrate=4217.8kbits/s speed=1.01x    frame= 2238 fps= 15 q=-1.0 size=   76544kB time=00:02:28.73 bitrate=4216.0kbits/s speed=1.01x    frame= 2246 fps= 15 q=-1.0 size=   76800kB time=00:02:29.25 bitrate=4215.3kbits/s speed=1.01x    frame= 2254 fps= 15 q=-1.0 size=   77056kB time=00:02:29.77 bitrate=4214.7kbits/s speed=1.01x    frame= 2262 fps= 15 q=-1.0 size=   77568kB time=00:02:30.33 bitrate=4226.9kbits/s speed=1.01x    frame= 2270 fps= 15 q=-1.0 size=   77824kB time=00:02:30.85 bitrate=4226.2kbits/s speed=1.01x    frame= 2278 fps= 15 q=-1.0 size=   78080kB time=00:02:31.37 bitrate=4225.6kbits/s speed=1.01x    frame= 2286 fps= 15 q=-1.0 size=   78336kB time=00:02:31.93 bitrate=4223.8kbits/s speed=1.01x    frame= 2294 fps= 15 q=-1.0 size=   78592kB time=00:02:32.45 bitrate=4223.1kbits/s speed=1.01x    frame= 2302 fps= 15 q=-1.0 size=   78848kB time=00:02:32.97 bitrate=4222.5kbits/s speed=1.01x    frame= 2310 fps= 15 q=-1.0 size=   79104kB time=00:02:33.53 bitrate=4220.8kbits/s speed=1.01x    frame= 2318 fps= 15 q=-1.0 size=   79360kB time=00:02:34.05 bitrate=4220.1kbits/s speed=1.01x    frame= 2326 fps= 15 q=-1.0 size=   79616kB time=00:02:34.57 bitrate=4219.5kbits/s speed=1.01x    frame= 2334 fps= 15 q=-1.0 size=   79872kB time=00:02:35.13 bitrate=4217.8kbits/s speed=1.01x    frame= 2342 fps= 15 q=-1.0 size=   80128kB time=00:02:35.65 bitrate=4217.2kbits/s speed=1.01x    frame= 2350 fps= 15 q=-1.0 size=   80384kB time=00:02:36.17 bitrate=4216.6kbits/s speed=1.01x    frame= 2358 fps= 15 q=-1.0 size=   80640kB time=00:02:36.73 bitrate=4214.9kbits/s speed=1.01x    frame= 2366 fps= 15 q=-1.0 size=   80896kB time=00:02:37.25 bitrate=4214.3kbits/s speed=1.01x    frame= 2374 fps= 15 q=-1.0 size=   81152kB time=00:02:37.77 bitrate=4213.7kbits/s speed=1.01x    frame= 2382 fps= 15 q=-1.0 size=   81408kB time=00:02:38.33 bitrate=4212.0kbits/s speed=1.01x    frame= 2390 fps= 15 q=-1.0 size=   81664kB time=00:02:38.85 bitrate=4211.5kbits/s speed=1.01x    frame= 2398 fps= 15 q=-1.0 size=   81920kB time=00:02:39.37 bitrate=4210.9kbits/s speed=1.01x    frame= 2406 fps= 15 q=-1.0 size=   82432kB time=00:02:39.93 bitrate=4222.4kbits/s speed=1.01x    frame= 2414 fps= 15 q=-1.0 size=   82688kB time=00:02:40.45 bitrate=4221.7kbits/s speed=1.01x    frame= 2422 fps= 15 q=-1.0 size=   82944kB time=00:02:40.97 bitrate=4221.1kbits/s speed=1.01x    frame= 2430 fps= 15 q=-1.0 size=   83200kB time=00:02:41.53 bitrate=4219.5kbits/s speed=1.01x    frame= 2438 fps= 15 q=-1.0 size=   83456kB time=00:02:42.05 bitrate=4218.9kbits/s speed=1.01x    frame= 2446 fps= 15 q=-1.0 size=   83712kB time=00:02:42.57 bitrate=4218.3kbits/s speed=1.01x    frame= 2454 fps= 15 q=-1.0 size=   83968kB time=00:02:43.13 bitrate=4216.7kbits/s speed=1.01x    frame= 2462 fps= 15 q=-1.0 size=   84224kB time=00:02:43.65 bitrate=4216.1kbits/s speed=1.01x    frame= 2470 fps= 15 q=-1.0 size=   84480kB time=00:02:44.17 bitrate=4215.5kbits/s speed=1.01x    frame= 2478 fps= 15 q=-1.0 size=   84736kB time=00:02:44.73 bitrate=4213.9kbits/s speed=1.01x    frame= 2486 fps= 15 q=-1.0 size=   84992kB time=00:02:45.25 bitrate=4213.3kbits/s speed=1.01x    frame= 2494 fps= 15 q=-1.0 size=   85248kB time=00:02:45.76 bitrate=4212.8kbits/s speed=1.01x    frame= 2502 fps= 15 q=-1.0 size=   85504kB time=00:02:46.32 bitrate=4211.2kbits/s speed=1.01x    frame= 2510 fps= 15 q=-1.0 size=   85760kB time=00:02:46.84 bitrate=4210.7kbits/s speed=1.01x    frame= 2518 fps= 15 q=-1.0 size=   86016kB time=00:02:47.36 bitrate=4210.1kbits/s speed=1.01x    frame= 2526 fps= 15 q=-1.0 size=   86272kB time=00:02:47.92 bitrate=4208.6kbits/s speed=1.01x    frame= 2534 fps= 15 q=-1.0 size=   86784kB time=00:02:48.44 bitrate=4220.5kbits/s speed=1.01x    frame= 2542 fps= 15 q=-1.0 size=   87040kB time=00:02:48.96 bitrate=4219.9kbits/s speed=1.01x    frame= 2550 fps= 15 q=-1.0 size=   87296kB time=00:02:49.52 bitrate=4218.3kbits/s speed=1.01x    frame= 2558 fps= 15 q=-1.0 size=   87552kB time=00:02:50.04 bitrate=4217.7kbits/s speed=1.01x    frame= 2566 fps= 15 q=-1.0 size=   87808kB time=00:02:50.56 bitrate=4217.2kbits/s speed=1.01x    frame= 2574 fps= 15 q=-1.0 size=   88064kB time=00:02:51.12 bitrate=4215.6kbits/s speed=1.01x    frame= 2582 fps= 15 q=-1.0 size=   88320kB time=00:02:51.64 bitrate=4215.1kbits/s speed=1.01x    frame= 2590 fps= 15 q=-1.0 size=   88576kB time=00:02:52.16 bitrate=4214.5kbits/s speed=1.01x    frame= 2598 fps= 15 q=-1.0 size=   88832kB time=00:02:52.72 bitrate=4213.0kbits/s speed=1.01x    frame= 2606 fps= 15 q=-1.0 size=   89088kB time=00:02:53.24 bitrate=4212.5kbits/s speed=1.01x    frame= 2614 fps= 15 q=-1.0 size=   89344kB time=00:02:53.76 bitrate=4211.9kbits/s speed=1.01x    frame= 2622 fps= 15 q=-1.0 size=   89600kB time=00:02:54.32 bitrate=4210.4kbits/s speed=1.01x    frame= 2630 fps= 15 q=-1.0 size=   89856kB time=00:02:54.84 bitrate=4209.9kbits/s speed=1.01x    frame= 2638 fps= 15 q=-1.0 size=   90112kB time=00:02:55.36 bitrate=4209.4kbits/s speed=1.01x    frame= 2646 fps= 15 q=-1.0 size=   90368kB time=00:02:55.92 bitrate=4207.9kbits/s speed=1.01x    frame= 2654 fps= 15 q=-1.0 size=   90880kB time=00:02:56.44 bitrate=4219.3kbits/s speed=1.01x    frame= 2662 fps= 15 q=-1.0 size=   91136kB time=00:02:56.96 bitrate=4218.7kbits/s speed=1.01x    frame= 2670 fps= 15 q=-1.0 size=   91392kB time=00:02:57.52 bitrate=4217.3kbits/s speed=1.01x    frame= 2678 fps= 15 q=-1.0 size=   91648kB time=00:02:58.04 bitrate=4216.7kbits/s speed=1.01x    frame= 2686 fps= 15 q=-1.0 size=   91904kB time=00:02:58.56 bitrate=4216.2kbits/s speed=1.01x    frame= 2694 fps= 15 q=-1.0 size=   92160kB time=00:02:59.12 bitrate=4214.7kbits/s speed=1.01x    frame= 2702 fps= 15 q=-1.0 size=   92416kB time=00:02:59.64 bitrate=4214.2kbits/s speed=1.01x    frame= 2710 fps= 15 q=-1.0 size=   92672kB time=00:03:00.16 bitrate=4213.7kbits/s speed=1.01x    frame= 2718 fps= 15 q=-1.0 size=   92928kB time=00:03:00.72 bitrate=4212.2kbits/s speed=1.01x    frame= 2726 fps= 15 q=-1.0 size=   93184kB time=00:03:01.24 bitrate=4211.7kbits/s speed=1.01x    frame= 2734 fps= 15 q=-1.0 size=   93440kB time=00:03:01.76 bitrate=4211.2kbits/s speed=1.01x    frame= 2742 fps= 15 q=-1.0 size=   93696kB time=00:03:02.32 bitrate=4209.7kbits/s speed=1.01x    frame= 2750 fps= 15 q=-1.0 size=   93952kB time=00:03:02.84 bitrate=4209.2kbits/s speed=1.01x    frame= 2757 fps= 15 q=-1.0 size=   94208kB time=00:03:03.32 bitrate=4209.7kbits/s speed=1.01x    frame= 2766 fps= 15 q=-1.0 size=   94464kB time=00:03:03.92 bitrate=4207.3kbits/s speed=1.01x    frame= 2774 fps= 15 q=-1.0 size=   94720kB time=00:03:04.44 bitrate=4206.8kbits/s speed=1.01x    frame= 2782 fps= 15 q=-1.0 size=   95232kB time=00:03:04.96 bitrate=4217.7kbits/s speed=1.01x    frame= 2790 fps= 15 q=-1.0 size=   95488kB time=00:03:05.52 bitrate=4216.3kbits/s speed=1.01x    frame= 2798 fps= 15 q=-1.0 size=   95744kB time=00:03:06.04 bitrate=4215.8kbits/s speed=1.01x    frame= 2806 fps= 15 q=-1.0 size=   96000kB time=00:03:06.56 bitrate=4215.3kbits/s speed=1.01x    frame= 2814 fps= 15 q=-1.0 size=   96256kB time=00:03:07.12 bitrate=4213.9kbits/s speed=1.01x    frame= 2822 fps= 15 q=-1.0 size=   96512kB time=00:03:07.64 bitrate=4213.4kbits/s speed=1.01x    frame= 2830 fps= 15 q=-1.0 size=   96768kB time=00:03:08.16 bitrate=4212.9kbits/s speed=1.01x    frame= 2838 fps= 15 q=-1.0 size=   97024kB time=00:03:08.72 bitrate=4211.5kbits/s speed=1.01x    frame= 2846 fps= 15 q=-1.0 size=   97280kB time=00:03:09.24 bitrate=4211.0kbits/s speed=1.01x    frame= 2854 fps= 15 q=-1.0 size=   97536kB time=00:03:09.76 bitrate=4210.5kbits/s speed=1.01x    frame= 2862 fps= 15 q=-1.0 size=   97792kB time=00:03:10.32 bitrate=4209.1kbits/s speed=1.01x    frame= 2870 fps= 15 q=-1.0 size=   98048kB time=00:03:10.84 bitrate=4208.6kbits/s speed=1.01x    frame= 2878 fps= 15 q=-1.0 size=   98304kB time=00:03:11.36 bitrate=4208.2kbits/s speed=1.01x    frame= 2886 fps= 15 q=-1.0 size=   98560kB time=00:03:11.92 bitrate=4206.8kbits/s speed=1.01x    frame= 2894 fps= 15 q=-1.0 size=   98816kB time=00:03:12.44 bitrate=4206.3kbits/s speed=1.01x    frame= 2902 fps= 15 q=-1.0 size=   99072kB time=00:03:12.96 bitrate=4205.9kbits/s speed=1.01x    frame= 2910 fps= 15 q=-1.0 size=   99584kB time=00:03:13.52 bitrate=4215.4kbits/s speed=1.01x    frame= 2918 fps= 15 q=-1.0 size=   99840kB time=00:03:14.04 bitrate=4214.9kbits/s speed=1.01x    frame= 2926 fps= 15 q=-1.0 size=  100096kB time=00:03:14.56 bitrate=4214.4kbits/s speed=1.01x    frame= 2934 fps= 15 q=-1.0 size=  100352kB time=00:03:15.12 bitrate=4213.1kbits/s speed=1.01x    frame= 2942 fps= 15 q=-1.0 size=  100608kB time=00:03:15.64 bitrate=4212.6kbits/s speed=1.01x    frame= 2950 fps= 15 q=-1.0 size=  100864kB time=00:03:16.16 bitrate=4212.1kbits/s speed=1.01x    frame= 2957 fps= 15 q=-1.0 size=  101120kB time=00:03:16.64 bitrate=4212.5kbits/s speed=1.01x    frame= 2966 fps= 15 q=-1.0 size=  101376kB time=00:03:17.24 bitrate=4210.3kbits/s speed=1.01x    frame= 2974 fps= 15 q=-1.0 size=  101632kB time=00:03:17.76 bitrate=4209.9kbits/s speed=1.01x    frame= 2982 fps= 15 q=-1.0 size=  101888kB time=00:03:18.32 bitrate=4208.5kbits/s speed=1.01x    frame= 2990 fps= 15 q=-1.0 size=  102144kB time=00:03:18.84 bitrate=4208.1kbits/s speed=1.01x    frame= 2998 fps= 15 q=-1.0 size=  102400kB time=00:03:19.36 bitrate=4207.6kbits/s speed=1.01x    frame= 3006 fps= 15 q=-1.0 size=  102656kB time=00:03:19.92 bitrate=4206.3kbits/s speed=1.01x    frame= 3014 fps= 15 q=-1.0 size=  102912kB time=00:03:20.44 bitrate=4205.9kbits/s speed=1.01x    frame= 3022 fps= 15 q=-1.0 size=  103168kB time=00:03:20.96 bitrate=4205.4kbits/s speed=1.01x    frame= 3030 fps= 15 q=-1.0 size=  103680kB time=00:03:21.52 bitrate=4214.6kbits/s speed=1.01x    frame= 3038 fps= 15 q=-1.0 size=  103936kB time=00:03:22.04 bitrate=4214.1kbits/s speed=1.01x    frame= 3046 fps= 15 q=-1.0 size=  104192kB time=00:03:22.56 bitrate=4213.6kbits/s speed=1.01x    frame= 3054 fps= 15 q=-1.0 size=  104448kB time=00:03:23.12 bitrate=4212.3kbits/s speed=1.01x    frame= 3062 fps= 15 q=-1.0 size=  104704kB time=00:03:23.64 bitrate=4211.9kbits/s speed=1.01x    frame= 3070 fps= 15 q=-1.0 size=  104960kB time=00:03:24.16 bitrate=4211.4kbits/s speed=1.01x    frame= 3078 fps= 15 q=-1.0 size=  105216kB time=00:03:24.72 bitrate=4210.1kbits/s speed=1.01x    frame= 3086 fps= 15 q=-1.0 size=  105472kB time=00:03:25.24 bitrate=4209.7kbits/s speed=1.01x    frame= 3094 fps= 15 q=-1.0 size=  105728kB time=00:03:25.76 bitrate=4209.3kbits/s speed=1.01x    frame= 3102 fps= 15 q=-1.0 size=  105984kB time=00:03:26.32 bitrate=4208.0kbits/s speed=1.01x    frame= 3110 fps= 15 q=-1.0 size=  106240kB time=00:03:26.84 bitrate=4207.6kbits/s speed=1.01x    frame= 3118 fps= 15 q=-1.0 size=  106496kB time=00:03:27.36 bitrate=4207.1kbits/s speed=1.01x    frame= 3126 fps= 15 q=-1.0 size=  106752kB time=00:03:27.92 bitrate=4205.9kbits/s speed=1.01x    frame= 3134 fps= 15 q=-1.0 size=  107008kB time=00:03:28.44 bitrate=4205.5kbits/s speed=1.01x    frame= 3142 fps= 15 q=-1.0 size=  107264kB time=00:03:28.96 bitrate=4205.0kbits/s speed=1.01x    frame= 3150 fps= 15 q=-1.0 size=  107520kB time=00:03:29.52 bitrate=4203.8kbits/s speed=1.01x    frame= 3158 fps= 15 q=-1.0 size=  108032kB time=00:03:30.04 bitrate=4213.4kbits/s speed=1.01x    frame= 3166 fps= 15 q=-1.0 size=  108288kB time=00:03:30.56 bitrate=4212.9kbits/s speed=1.01x    frame= 3174 fps= 15 q=-1.0 size=  108544kB time=00:03:31.12 bitrate=4211.7kbits/s speed=1.01x    frame= 3182 fps= 15 q=-1.0 size=  108800kB time=00:03:31.64 bitrate=4211.2kbits/s speed=1.01x    frame= 3190 fps= 15 q=-1.0 size=  109056kB time=00:03:32.16 bitrate=4210.8kbits/s speed=1.01x    frame= 3198 fps= 15 q=-1.0 size=  109312kB time=00:03:32.72 bitrate=4209.6kbits/s speed=1.01x    frame= 3206 fps= 15 q=-1.0 size=  109568kB time=00:03:33.24 bitrate=4209.1kbits/s speed=1.01x    frame= 3214 fps= 15 q=-1.0 size=  109824kB time=00:03:33.76 bitrate=4208.7kbits/s speed=1.01x    frame= 3222 fps= 15 q=-1.0 size=  110080kB time=00:03:34.32 bitrate=4207.5kbits/s speed=1.01x    frame= 3230 fps= 15 q=-1.0 size=  110336kB time=00:03:34.84 bitrate=4207.1kbits/s speed=1.01x    frame= 3238 fps= 15 q=-1.0 size=  110592kB time=00:03:35.36 bitrate=4206.7kbits/s speed=1.01x    frame= 3246 fps= 15 q=-1.0 size=  110848kB time=00:03:35.92 bitrate=4205.5kbits/s speed=1.01x    frame= 3254 fps= 15 q=-1.0 size=  111104kB time=00:03:36.44 bitrate=4205.1kbits/s speed=1.01x    frame= 3262 fps= 15 q=-1.0 size=  111360kB time=00:03:36.96 bitrate=4204.7kbits/s speed=1.01x    frame= 3270 fps= 15 q=-1.0 size=  111872kB time=00:03:37.52 bitrate=4213.1kbits/s speed=1.01x    frame= 3278 fps= 15 q=-1.0 size=  112128kB time=00:03:38.04 bitrate=4212.7kbits/s speed=1.01x    frame= 3286 fps= 15 q=-1.0 size=  112384kB time=00:03:38.56 bitrate=4212.3kbits/s speed=1.01x    frame= 3294 fps= 15 q=-1.0 size=  112640kB time=00:03:39.12 bitrate=4211.1kbits/s speed=1.01x    frame= 3302 fps= 15 q=-1.0 size=  112896kB time=00:03:39.64 bitrate=4210.6kbits/s speed=1.01x    frame= 3310 fps= 15 q=-1.0 size=  113152kB time=00:03:40.16 bitrate=4210.2kbits/s speed=1.01x    frame= 3318 fps= 15 q=-1.0 size=  113408kB time=00:03:40.72 bitrate=4209.0kbits/s speed=1.01x    frame= 3326 fps= 15 q=-1.0 size=  113664kB time=00:03:41.24 bitrate=4208.6kbits/s speed=1.01x    frame= 3334 fps= 15 q=-1.0 size=  113920kB time=00:03:41.76 bitrate=4208.2kbits/s speed=1.01x    frame= 3342 fps= 15 q=-1.0 size=  114176kB time=00:03:42.32 bitrate=4207.0kbits/s speed=1.01x    frame= 3350 fps= 15 q=-1.0 size=  114432kB time=00:03:42.84 bitrate=4206.6kbits/s speed=1.01x    frame= 3357 fps= 15 q=-1.0 size=  114688kB time=00:03:43.32 bitrate=4207.0kbits/s speed=1.01x    frame= 3366 fps= 15 q=-1.0 size=  115200kB time=00:03:43.92 bitrate=4214.4kbits/s speed=1.01x    frame= 3374 fps= 15 q=-1.0 size=  115456kB time=00:03:44.44 bitrate=4214.0kbits/s speed=1.01x    frame= 3382 fps= 15 q=-1.0 size=  115712kB time=00:03:44.96 bitrate=4213.6kbits/s speed=1.01x    frame= 3390 fps= 15 q=-1.0 size=  115968kB time=00:03:45.52 bitrate=4212.5kbits/s speed=1.01x    frame= 3398 fps= 15 q=-1.0 size=  116224kB time=00:03:46.04 bitrate=4212.1kbits/s speed=1.01x    frame= 3406 fps= 15 q=-1.0 size=  116480kB time=00:03:46.56 bitrate=4211.6kbits/s speed=1.01x    frame= 3414 fps= 15 q=-1.0 size=  116736kB time=00:03:47.12 bitrate=4210.5kbits/s speed=1.01x    frame= 3422 fps= 15 q=-1.0 size=  116992kB time=00:03:47.64 bitrate=4210.1kbits/s speed=1.01x    frame= 3430 fps= 15 q=-1.0 size=  117248kB time=00:03:48.16 bitrate=4209.7kbits/s speed=1.01x    frame= 3438 fps= 15 q=-1.0 size=  117504kB time=00:03:48.72 bitrate=4208.5kbits/s speed=1.01x    frame= 3446 fps= 15 q=-1.0 size=  117760kB time=00:03:49.24 bitrate=4208.1kbits/s speed=1.01x    frame= 3454 fps= 15 q=-1.0 size=  118016kB time=00:03:49.76 bitrate=4207.7kbits/s speed=1.01x    frame= 3462 fps= 15 q=-1.0 size=  118272kB time=00:03:50.32 bitrate=4206.6kbits/s speed=1.01x    frame= 3470 fps= 15 q=-1.0 size=  118784kB time=00:03:50.84 bitrate=4215.3kbits/s speed=1.01x    frame= 3478 fps= 15 q=-1.0 size=  119040kB time=00:03:51.36 bitrate=4214.9kbits/s speed=1.01x    frame= 3486 fps= 15 q=-1.0 size=  119296kB time=00:03:51.92 bitrate=4213.8kbits/s speed=1.01x    frame= 3494 fps= 15 q=-1.0 size=  119552kB time=00:03:52.44 bitrate=4213.4kbits/s speed=1.01x    frame= 3502 fps= 15 q=-1.0 size=  119808kB time=00:03:52.96 bitrate=4213.0kbits/s speed=1.01x    frame= 3510 fps= 15 q=-1.0 size=  120064kB time=00:03:53.52 bitrate=4211.8kbits/s speed=1.01x    frame= 3518 fps= 15 q=-1.0 size=  120320kB time=00:03:54.04 bitrate=4211.4kbits/s speed=1.01x    frame= 3526 fps= 15 q=-1.0 size=  120576kB time=00:03:54.56 bitrate=4211.0kbits/s speed=1.01x    frame= 3534 fps= 15 q=-1.0 size=  120832kB time=00:03:55.12 bitrate=4209.9kbits/s speed=1.01x    frame= 3542 fps= 15 q=-1.0 size=  121088kB time=00:03:55.64 bitrate=4209.6kbits/s speed=1.01x    frame= 3550 fps= 15 q=-1.0 size=  121344kB time=00:03:56.16 bitrate=4209.2kbits/s speed=1.01x    frame= 3558 fps= 15 q=-1.0 size=  121600kB time=00:03:56.72 bitrate=4208.1kbits/s speed=1.01x    frame= 3566 fps= 15 q=-1.0 size=  121856kB time=00:03:57.24 bitrate=4207.7kbits/s speed=1.01x    frame= 3574 fps= 15 q=-1.0 size=  122112kB time=00:03:57.76 bitrate=4207.3kbits/s speed=1.01x    frame= 3582 fps= 15 q=-1.0 size=  122368kB time=00:03:58.32 bitrate=4206.2kbits/s speed=1.01x    frame= 3590 fps= 15 q=-1.0 size=  122624kB time=00:03:58.84 bitrate=4205.8kbits/s speed=1.01x    frame= 3598 fps= 15 q=-1.0 size=  122880kB time=00:03:59.36 bitrate=4205.5kbits/s speed=1.01x    frame= 3606 fps= 15 q=-1.0 size=  123136kB time=00:03:59.92 bitrate=4204.4kbits/s speed=1.01x    frame= 3614 fps= 15 q=-1.0 size=  123648kB time=00:04:00.44 bitrate=4212.7kbits/s speed=1.01x    frame= 3622 fps= 15 q=-1.0 size=  123904kB time=00:04:00.96 bitrate=4212.4kbits/s speed=1.01x    frame= 3630 fps= 15 q=-1.0 size=  124160kB time=00:04:01.52 bitrate=4211.3kbits/s speed=1.01x    frame= 3638 fps= 15 q=-1.0 size=  124416kB time=00:04:02.04 bitrate=4210.9kbits/s speed=1.01x    frame= 3646 fps= 15 q=-1.0 size=  124672kB time=00:04:02.56 bitrate=4210.5kbits/s speed=1.01x    frame= 3654 fps= 15 q=-1.0 size=  124928kB time=00:04:03.12 bitrate=4209.4kbits/s speed=1.01x    frame= 3662 fps= 15 q=-1.0 size=  125184kB time=00:04:03.64 bitrate=4209.1kbits/s speed=1.01x    frame= 3670 fps= 15 q=-1.0 size=  125440kB time=00:04:04.16 bitrate=4208.7kbits/s speed=1.01x    frame= 3678 fps= 15 q=-1.0 size=  125696kB time=00:04:04.72 bitrate=4207.6kbits/s speed=1.01x    frame= 3686 fps= 15 q=-1.0 size=  125952kB time=00:04:05.24 bitrate=4207.3kbits/s speed=1.01x    frame= 3694 fps= 15 q=-1.0 size=  126208kB time=00:04:05.76 bitrate=4206.9kbits/s speed=1.01x    frame= 3702 fps= 15 q=-1.0 size=  126464kB time=00:04:06.32 bitrate=4205.9kbits/s speed=1.01x    frame= 3710 fps= 15 q=-1.0 size=  126720kB time=00:04:06.84 bitrate=4205.5kbits/s speed=1.01x    frame= 3718 fps= 15 q=-1.0 size=  126976kB time=00:04:07.36 bitrate=4205.1kbits/s speed=1.01x    frame= 3726 fps= 15 q=-1.0 size=  127232kB time=00:04:07.92 bitrate=4204.1kbits/s speed=1.01x    frame= 3734 fps= 15 q=-1.0 size=  127744kB time=00:04:08.44 bitrate=4212.2kbits/s speed=1.01x    frame= 3742 fps= 15 q=-1.0 size=  128000kB time=00:04:08.96 bitrate=4211.8kbits/s speed=1.01x    frame= 3750 fps= 15 q=-1.0 size=  128256kB time=00:04:09.52 bitrate=4210.8kbits/s speed=1.01x    frame= 3758 fps= 15 q=-1.0 size=  128512kB time=00:04:10.04 bitrate=4210.4kbits/s speed=1.01x    frame= 3766 fps= 15 q=-1.0 size=  128768kB time=00:04:10.56 bitrate=4210.0kbits/s speed=1.01x    frame= 3774 fps= 15 q=-1.0 size=  129024kB time=00:04:11.12 bitrate=4209.0kbits/s speed=1.01x    frame= 3782 fps= 15 q=-1.0 size=  129280kB time=00:04:11.64 bitrate=4208.6kbits/s speed=1.01x    frame= 3790 fps= 15 q=-1.0 size=  129536kB time=00:04:12.16 bitrate=4208.2kbits/s speed=1.01x    frame= 3798 fps= 15 q=-1.0 size=  129792kB time=00:04:12.72 bitrate=4207.2kbits/s speed=1.01x    frame= 3806 fps= 15 q=-1.0 size=  130048kB time=00:04:13.24 bitrate=4206.9kbits/s speed=1.01x    frame= 3814 fps= 15 q=-1.0 size=  130304kB time=00:04:13.76 bitrate=4206.5kbits/s speed=1.01x    frame= 3822 fps= 15 q=-1.0 size=  130560kB time=00:04:14.32 bitrate=4205.5kbits/s speed=1.01x    frame= 3830 fps= 15 q=-1.0 size=  130816kB time=00:04:14.84 bitrate=4205.1kbits/s speed=1.01x    frame= 3838 fps= 15 q=-1.0 size=  131072kB time=00:04:15.36 bitrate=4204.8kbits/s speed=1.01x    frame= 3846 fps= 15 q=-1.0 size=  131584kB time=00:04:15.92 bitrate=4212.0kbits/s speed=1.01x    frame= 3854 fps= 15 q=-1.0 size=  131840kB time=00:04:16.44 bitrate=4211.6kbits/s speed=1.01x    frame= 3862 fps= 15 q=-1.0 size=  132096kB time=00:04:16.96 bitrate=4211.3kbits/s speed=1.01x    frame= 3870 fps= 15 q=-1.0 size=  132352kB time=00:04:17.52 bitrate=4210.3kbits/s speed=1.01x    frame= 3878 fps= 15 q=-1.0 size=  132608kB time=00:04:18.04 bitrate=4209.9kbits/s speed=1.01x    frame= 3886 fps= 15 q=-1.0 size=  132864kB time=00:04:18.56 bitrate=4209.5kbits/s speed=1.01x    frame= 3894 fps= 15 q=-1.0 size=  133120kB time=00:04:19.12 bitrate=4208.5kbits/s speed=1.01x    frame= 3902 fps= 15 q=-1.0 size=  133376kB time=00:04:19.64 bitrate=4208.2kbits/s speed=1.01x    frame= 3910 fps= 15 q=-1.0 size=  133632kB time=00:04:20.16 bitrate=4207.8kbits/s speed=1.01x    frame= 3918 fps= 15 q=-1.0 size=  133888kB time=00:04:20.72 bitrate=4206.8kbits/s speed=1.01x    frame= 3926 fps= 15 q=-1.0 size=  134144kB time=00:04:21.24 bitrate=4206.5kbits/s speed=1.01x    frame= 3934 fps= 15 q=-1.0 size=  134400kB time=00:04:21.76 bitrate=4206.2kbits/s speed=1.01x    frame= 3942 fps= 15 q=-1.0 size=  134656kB time=00:04:22.32 bitrate=4205.2kbits/s speed=1.01x    frame= 3950 fps= 15 q=-1.0 size=  134912kB time=00:04:22.84 bitrate=4204.8kbits/s speed=1.01x    frame= 3958 fps= 15 q=-1.0 size=  135168kB time=00:04:23.36 bitrate=4204.5kbits/s speed=1.01x    frame= 3966 fps= 15 q=-1.0 size=  135680kB time=00:04:23.92 bitrate=4211.5kbits/s speed=1.01x    frame= 3974 fps= 15 q=-1.0 size=  135936kB time=00:04:24.44 bitrate=4211.1kbits/s speed=1.01x    frame= 3982 fps= 15 q=-1.0 size=  136192kB time=00:04:24.96 bitrate=4210.8kbits/s speed=1.01x    frame= 3990 fps= 15 q=-1.0 size=  136448kB time=00:04:25.51 bitrate=4209.8kbits/s speed=1.01x    frame= 3998 fps= 15 q=-1.0 size=  136704kB time=00:04:26.03 bitrate=4209.4kbits/s speed=1.01x    frame= 4006 fps= 15 q=-1.0 size=  136960kB time=00:04:26.55 bitrate=4209.1kbits/s speed=1.01x    frame= 4014 fps= 15 q=-1.0 size=  137216kB time=00:04:27.11 bitrate=4208.1kbits/s speed=1.01x    frame= 4022 fps= 15 q=-1.0 size=  137472kB time=00:04:27.63 bitrate=4207.8kbits/s speed=1.01x    frame= 4030 fps= 15 q=-1.0 size=  137728kB time=00:04:28.15 bitrate=4207.4kbits/s speed=1.01x    frame= 4038 fps= 15 q=-1.0 size=  137984kB time=00:04:28.71 bitrate=4206.5kbits/s speed=1.01x    frame= 4046 fps= 15 q=-1.0 size=  138240kB time=00:04:29.23 bitrate=4206.1kbits/s speed=1.01x    frame= 4054 fps= 15 q=-1.0 size=  138496kB time=00:04:29.75 bitrate=4205.8kbits/s speed=1.01x    frame= 4062 fps= 15 q=-1.0 size=  138752kB time=00:04:30.31 bitrate=4204.9kbits/s speed=1.01x    frame= 4070 fps= 15 q=-1.0 size=  139008kB time=00:04:30.83 bitrate=4204.5kbits/s speed=1.01x    frame= 4078 fps= 15 q=-1.0 size=  139264kB time=00:04:31.35 bitrate=4204.2kbits/s speed=1.01x    frame= 4086 fps= 15 q=-1.0 size=  139520kB time=00:04:31.91 bitrate=4203.3kbits/s speed=1.01x    frame= 4094 fps= 15 q=-1.0 size=  139776kB time=00:04:32.43 bitrate=4202.9kbits/s speed=1.01x    frame= 4102 fps= 15 q=-1.0 size=  140032kB time=00:04:32.95 bitrate=4202.6kbits/s speed=1.01x    frame= 4110 fps= 15 q=-1.0 size=  140544kB time=00:04:33.51 bitrate=4209.3kbits/s speed=1.01x    frame= 4118 fps= 15 q=-1.0 size=  140800kB time=00:04:34.03 bitrate=4209.0kbits/s speed=1.01x    frame= 4126 fps= 15 q=-1.0 size=  141056kB time=00:04:34.55 bitrate=4208.7kbits/s speed=1.01x    frame= 4134 fps= 15 q=-1.0 size=  141312kB time=00:04:35.11 bitrate=4207.7kbits/s speed=1.01x    frame= 4142 fps= 15 q=-1.0 size=  141568kB time=00:04:35.63 bitrate=4207.4kbits/s speed=1.01x    frame= 4150 fps= 15 q=-1.0 size=  141824kB time=00:04:36.15 bitrate=4207.1kbits/s speed=1.01x    frame= 4158 fps= 15 q=-1.0 size=  142080kB time=00:04:36.71 bitrate=4206.1kbits/s speed=1.01x    frame= 4166 fps= 15 q=-1.0 size=  142336kB time=00:04:37.23 bitrate=4205.8kbits/s speed=1.01x    frame= 4174 fps= 15 q=-1.0 size=  142592kB time=00:04:37.75 bitrate=4205.5kbits/s speed=1.01x    frame= 4182 fps= 15 q=-1.0 size=  142848kB time=00:04:38.31 bitrate=4204.6kbits/s speed=1.01x    frame= 4190 fps= 15 q=-1.0 size=  143104kB time=00:04:38.83 bitrate=4204.3kbits/s speed=1.01x    frame= 4198 fps= 15 q=-1.0 size=  143360kB time=00:04:39.35 bitrate=4203.9kbits/s speed=1.01x    frame= 4206 fps= 15 q=-1.0 size=  143616kB time=00:04:39.91 bitrate=4203.0kbits/s speed=1.01x    frame= 4214 fps= 15 q=-1.0 size=  143872kB time=00:04:40.43 bitrate=4202.7kbits/s speed=1.01x    frame= 4222 fps= 15 q=-1.0 size=  144128kB time=00:04:40.95 bitrate=4202.4kbits/s speed=1.01x    frame= 4230 fps= 15 q=-1.0 size=  144640kB time=00:04:41.51 bitrate=4208.9kbits/s speed=1.01x    frame= 4238 fps= 15 q=-1.0 size=  144896kB time=00:04:42.03 bitrate=4208.6kbits/s speed=1.01x    frame= 4246 fps= 15 q=-1.0 size=  145152kB time=00:04:42.55 bitrate=4208.3kbits/s speed=1.01x    frame= 4254 fps= 15 q=-1.0 size=  145408kB time=00:04:43.11 bitrate=4207.4kbits/s speed=1.01x    frame= 4262 fps= 15 q=-1.0 size=  145664kB time=00:04:43.63 bitrate=4207.0kbits/s speed=1.01x    frame= 4270 fps= 15 q=-1.0 size=  145920kB time=00:04:44.15 bitrate=4206.7kbits/s speed=1.01x    frame= 4278 fps= 15 q=-1.0 size=  146176kB time=00:04:44.71 bitrate=4205.8kbits/s speed=1.01x    frame= 4286 fps= 15 q=-1.0 size=  146432kB time=00:04:45.23 bitrate=4205.5kbits/s speed=1.01x    frame= 4294 fps= 15 q=-1.0 size=  146688kB time=00:04:45.75 bitrate=4205.2kbits/s speed=1.01x    frame= 4302 fps= 15 q=-1.0 size=  146944kB time=00:04:46.31 bitrate=4204.3kbits/s speed=1.01x    frame= 4310 fps= 15 q=-1.0 size=  147200kB time=00:04:46.83 bitrate=4204.0kbits/s speed=1.01x    frame= 4318 fps= 15 q=-1.0 size=  147456kB time=00:04:47.35 bitrate=4203.7kbits/s speed=1.01x    frame= 4326 fps= 15 q=-1.0 size=  147712kB time=00:04:47.91 bitrate=4202.8kbits/s speed=1.01x    frame= 4334 fps= 15 q=-1.0 size=  147968kB time=00:04:48.43 bitrate=4202.5kbits/s speed=1.01x    frame= 4342 fps= 15 q=-1.0 size=  148224kB time=00:04:48.95 bitrate=4202.2kbits/s speed=1.01x    frame= 4350 fps= 15 q=-1.0 size=  148480kB time=00:04:49.51 bitrate=4201.3kbits/s speed=1.01x    frame= 4358 fps= 15 q=-1.0 size=  148736kB time=00:04:50.03 bitrate=4201.0kbits/s speed=1.01x    frame= 4366 fps= 15 q=-1.0 size=  149248kB time=00:04:50.55 bitrate=4207.9kbits/s speed=1.01x    frame= 4374 fps= 15 q=-1.0 size=  149504kB time=00:04:51.11 bitrate=4207.0kbits/s speed=1.01x    frame= 4382 fps= 15 q=-1.0 size=  149760kB time=00:04:51.63 bitrate=4206.7kbits/s speed=1.01x    frame= 4390 fps= 15 q=-1.0 size=  150016kB time=00:04:52.15 bitrate=4206.4kbits/s speed=1.01x    frame= 4398 fps= 15 q=-1.0 size=  150272kB time=00:04:52.71 bitrate=4205.5kbits/s speed=1.01x    frame= 4406 fps= 15 q=-1.0 size=  150528kB time=00:04:53.23 bitrate=4205.2kbits/s speed=1.01x    frame= 4414 fps= 15 q=-1.0 size=  150784kB time=00:04:53.75 bitrate=4204.9kbits/s speed=1.01x    frame= 4422 fps= 15 q=-1.0 size=  151040kB time=00:04:54.31 bitrate=4204.0kbits/s speed=1.01x    frame= 4430 fps= 15 q=-1.0 size=  151296kB time=00:04:54.83 bitrate=4203.7kbits/s speed=1.01x    frame= 4438 fps= 15 q=-1.0 size=  151552kB time=00:04:55.35 bitrate=4203.4kbits/s speed=1.01x    frame= 4446 fps= 15 q=-1.0 size=  151808kB time=00:04:55.91 bitrate=4202.6kbits/s speed=1.01x    frame= 4454 fps= 15 q=-1.0 size=  152064kB time=00:04:56.43 bitrate=4202.3kbits/s speed=1.01x    frame= 4462 fps= 15 q=-1.0 size=  152320kB time=00:04:56.95 bitrate=4202.0kbits/s speed=1.01x    frame= 4470 fps= 15 q=-1.0 size=  152576kB time=00:04:57.51 bitrate=4201.1kbits/s speed=1.01x    frame= 4478 fps= 15 q=-1.0 size=  152832kB time=00:04:58.03 bitrate=4200.8kbits/s speed=1.01x    frame= 4486 fps= 15 q=-1.0 size=  153088kB time=00:04:58.55 bitrate=4200.5kbits/s speed=1.01x    frame= 4494 fps= 15 q=-1.0 size=  153344kB time=00:04:59.11 bitrate=4199.7kbits/s speed=1.01x    frame= 4502 fps= 15 q=-1.0 size=  153856kB time=00:04:59.63 bitrate=4206.4kbits/s speed=1.01x    frame= 4510 fps= 15 q=-1.0 size=  154112kB time=00:05:00.15 bitrate=4206.1kbits/s speed=1.01x    frame= 4518 fps= 15 q=-1.0 size=  154368kB time=00:05:00.71 bitrate=4205.2kbits/s speed=1.01x    frame= 4526 fps= 15 q=-1.0 size=  154624kB time=00:05:01.23 bitrate=4204.9kbits/s speed=1.01x    frame= 4534 fps= 15 q=-1.0 size=  154880kB time=00:05:01.75 bitrate=4204.6kbits/s speed=1.01x    frame= 4542 fps= 15 q=-1.0 size=  155136kB time=00:05:02.31 bitrate=4203.8kbits/s speed=1.01x    frame= 4550 fps= 15 q=-1.0 size=  155392kB time=00:05:02.83 bitrate=4203.5kbits/s speed=1.01x    frame= 4558 fps= 15 q=-1.0 size=  155648kB time=00:05:03.35 bitrate=4203.2kbits/s speed=1.01x    frame= 4566 fps= 15 q=-1.0 size=  155904kB time=00:05:03.91 bitrate=4202.4kbits/s speed=1.01x    frame= 4574 fps= 15 q=-1.0 size=  156160kB time=00:05:04.43 bitrate=4202.1kbits/s speed=1.01x    frame= 4582 fps= 15 q=-1.0 size=  156416kB time=00:05:04.95 bitrate=4201.8kbits/s speed=1.01x    frame= 4590 fps= 15 q=-1.0 size=  156672kB time=00:05:05.51 bitrate=4201.0kbits/s speed=1.01x    frame= 4598 fps= 15 q=-1.0 size=  156928kB time=00:05:06.03 bitrate=4200.7kbits/s speed=1.01x    frame= 4606 fps= 15 q=-1.0 size=  157184kB time=00:05:06.55 bitrate=4200.4kbits/s speed=1.01x    frame= 4614 fps= 15 q=-1.0 size=  157696kB time=00:05:07.11 bitrate=4206.4kbits/s speed=1.01x    frame= 4622 fps= 15 q=-1.0 size=  157952kB time=00:05:07.63 bitrate=4206.1kbits/s speed=1.01x    frame= 4630 fps= 15 q=-1.0 size=  158208kB time=00:05:08.15 bitrate=4205.8kbits/s speed=1.01x    frame= 4638 fps= 15 q=-1.0 size=  158464kB time=00:05:08.71 bitrate=4205.0kbits/s speed=1.01x    frame= 4646 fps= 15 q=-1.0 size=  158720kB time=00:05:09.23 bitrate=4204.7kbits/s speed=1.01x    frame= 4654 fps= 15 q=-1.0 size=  158976kB time=00:05:09.75 bitrate=4204.4kbits/s speed=1.01x    frame= 4662 fps= 15 q=-1.0 size=  159232kB time=00:05:10.31 bitrate=4203.6kbits/s speed=1.01x    frame= 4670 fps= 15 q=-1.0 size=  159488kB time=00:05:10.83 bitrate=4203.3kbits/s speed=1.01x    frame= 4678 fps= 15 q=-1.0 size=  159744kB time=00:05:11.35 bitrate=4203.0kbits/s speed=1.01x    frame= 4686 fps= 15 q=-1.0 size=  160000kB time=00:05:11.91 bitrate=4202.2kbits/s speed=1.01x    frame= 4694 fps= 15 q=-1.0 size=  160256kB time=00:05:12.43 bitrate=4201.9kbits/s speed=1.01x    frame= 4702 fps= 15 q=-1.0 size=  160512kB time=00:05:12.95 bitrate=4201.6kbits/s speed=1.01x    frame= 4710 fps= 15 q=-1.0 size=  160768kB time=00:05:13.51 bitrate=4200.8kbits/s speed=1.01x    frame= 4718 fps= 15 q=-1.0 size=  161024kB time=00:05:14.03 bitrate=4200.5kbits/s speed=1.01x    frame= 4726 fps= 15 q=-1.0 size=  161280kB time=00:05:14.55 bitrate=4200.2kbits/s speed=1.01x    frame= 4734 fps= 15 q=-1.0 size=  161792kB time=00:05:15.11 bitrate=4206.1kbits/s speed=1.01x    frame= 4742 fps= 15 q=-1.0 size=  162048kB time=00:05:15.63 bitrate=4205.8kbits/s speed=1.01x    frame= 4750 fps= 15 q=-1.0 size=  162304kB time=00:05:16.15 bitrate=4205.5kbits/s speed=1.01x    frame= 4758 fps= 15 q=-1.0 size=  162560kB time=00:05:16.71 bitrate=4204.7kbits/s speed=1.01x    frame= 4766 fps= 15 q=-1.0 size=  162816kB time=00:05:17.23 bitrate=4204.4kbits/s speed=1.01x    frame= 4774 fps= 15 q=-1.0 size=  163072kB time=00:05:17.75 bitrate=4204.1kbits/s speed=1.01x    frame= 4782 fps= 15 q=-1.0 size=  163328kB time=00:05:18.31 bitrate=4203.3kbits/s speed=1.01x    frame= 4790 fps= 15 q=-1.0 size=  163584kB time=00:05:18.83 bitrate=4203.1kbits/s speed=1.01x    frame= 4798 fps= 15 q=-1.0 size=  163840kB time=00:05:19.35 bitrate=4202.8kbits/s speed=1.01x    frame= 4806 fps= 15 q=-1.0 size=  164096kB time=00:05:19.91 bitrate=4202.0kbits/s speed=1.01x    frame= 4814 fps= 15 q=-1.0 size=  164352kB time=00:05:20.43 bitrate=4201.7kbits/s speed=1.01x    frame= 4822 fps= 15 q=-1.0 size=  164608kB time=00:05:20.95 bitrate=4201.4kbits/s speed=1.01x    frame= 4830 fps= 15 q=-1.0 size=  164864kB time=00:05:21.51 bitrate=4200.6kbits/s speed=1.01x    frame= 4838 fps= 15 q=-1.0 size=  165120kB time=00:05:22.03 bitrate=4200.4kbits/s speed=1.01x    frame= 4846 fps= 15 q=-1.0 size=  165632kB time=00:05:22.55 bitrate=4206.6kbits/s speed=1.01x    frame= 4854 fps= 15 q=-1.0 size=  165888kB time=00:05:23.11 bitrate=4205.8kbits/s speed=1.01x    frame= 4862 fps= 15 q=-1.0 size=  166144kB time=00:05:23.63 bitrate=4205.5kbits/s speed=1.01x    frame= 4870 fps= 15 q=-1.0 size=  166400kB time=00:05:24.15 bitrate=4205.2kbits/s speed=1.01x    frame= 4878 fps= 15 q=-1.0 size=  166656kB time=00:05:24.71 bitrate=4204.4kbits/s speed=1.01x    frame= 4886 fps= 15 q=-1.0 size=  166912kB time=00:05:25.23 bitrate=4204.2kbits/s speed=1.01x    frame= 4894 fps= 15 q=-1.0 size=  167168kB time=00:05:25.75 bitrate=4203.9kbits/s speed=1.01x    frame= 4902 fps= 15 q=-1.0 size=  167680kB time=00:05:26.31 bitrate=4209.6kbits/s speed=1.01x    frame= 4910 fps= 15 q=-1.0 size=  167936kB time=00:05:26.83 bitrate=4209.3kbits/s speed=1.01x    frame= 4918 fps= 15 q=-1.0 size=  168192kB time=00:05:27.35 bitrate=4209.0kbits/s speed=1.01x    frame= 4926 fps= 15 q=-1.0 size=  168448kB time=00:05:27.91 bitrate=4208.2kbits/s speed=1.01x    frame= 4934 fps= 15 q=-1.0 size=  168704kB time=00:05:28.43 bitrate=4207.9kbits/s speed=1.01x    frame= 4942 fps= 15 q=-1.0 size=  168960kB time=00:05:28.95 bitrate=4207.6kbits/s speed=1.01x    frame= 4950 fps= 15 q=-1.0 size=  169472kB time=00:05:29.51 bitrate=4213.2kbits/s speed=1.01x    frame= 4958 fps= 15 q=-1.0 size=  169728kB time=00:05:30.03 bitrate=4212.9kbits/s speed=1.01x    frame= 4966 fps= 15 q=-1.0 size=  169984kB time=00:05:30.55 bitrate=4212.7kbits/s speed=1.01x    frame= 4974 fps= 15 q=-1.0 size=  170240kB time=00:05:31.11 bitrate=4211.9kbits/s speed=1.01x    frame= 4982 fps= 15 q=-1.0 size=  170496kB time=00:05:31.63 bitrate=4211.6kbits/s speed=1.01x    frame= 4990 fps= 15 q=-1.0 size=  170752kB time=00:05:32.15 bitrate=4211.3kbits/s speed=1.01x    frame= 4998 fps= 15 q=-1.0 size=  171008kB time=00:05:32.71 bitrate=4210.5kbits/s speed=1.01x    frame= 5006 fps= 15 q=-1.0 size=  171264kB time=00:05:33.23 bitrate=4210.2kbits/s speed=1.01x    